%% De_66 - Thống kê doanh thu
classDiagram
    class KhachHang {
        +maKhachHang
        +tenKhachHang
        +soDienThoai
        +diaChi
    }


    class TrangPhuc {
        +maTrangPhuc
        +tenTrangPhuc
        +kieu
        +soLuong
        +giaTriGoc
        +giaThue
    }


    class PhieuThue {
        +maPhieuThue
        +ngayThue
        +tienCoc
    }


    class ChiTietThue {
        +soLuong
        +soLuongDaTra
        +donGiaThue
    }


    class PhieuTra {
        +maPhieuTra
        +ngayTra
        +tongTienThue
        +tongTienPhat
        +soTienKhachPhaiTra
        +soTienTraLaiKhach
    }


    class ChiTietTra {
        +soLuongTra
        +soNgayThue
        +tienThue
        +tinhTrang
        +tienPhat
    }

    KhachHang "1" -- "0..*" PhieuThue : thuê
    KhachHang "1" -- "0..*" PhieuTra : trả đồ
    PhieuThue "1" *-- "1..*" ChiTietThue : gồm
    ChiTietThue "0..*" -- "1" TrangPhuc : trang phục
    PhieuTra "1" *-- "1..*" ChiTietTra : gồm
    ChiTietTra "0..*" -- "1" ChiTietThue : trả cho dòng thuê



