%% De_59 - Thống kê khách hàng theo dư nợ
classDiagram
    class KhachHang {
        +maKhachHang
        +tenKhachHang
        +soDienThoai
        +diaChi
    }


    class DoiTac {
        +maDoiTac
        +tenDoiTac
        +diaChiChiNhanh
    }


    class MatHang {
        +maMatHang
        +tenMatHang
        +donViTinh
        +giaNiemYet
    }


    class HopDongTraGop {
        +maHopDong
        +thongTinDaiDienCongTy
        +ngayKi
        +tongTien
        +thoiHanVay
        +laiSuatNam
    }


    class ChiTietHopDong {
        +donGia
        +soLuong
        +thanhTien
    }


    class DotThanhToan {
        +ngayPhaiThanhToan
        +tongTienThanhToan
        +tongDuNoConLai
        +trangThaiThanhToan
    }

    KhachHang "1" -- "0..*" HopDongTraGop : ký
    DoiTac "1" -- "0..*" HopDongTraGop : bán hàng qua
    HopDongTraGop "1" *-- "1..*" ChiTietHopDong : gồm
    ChiTietHopDong "0..*" -- "1" MatHang : mặt hàng
    HopDongTraGop "1" *-- "1..*" DotThanhToan : lịch trả góp

