%% De_08 - Xem TKB của sinh viên
classDiagram
    class SinhVien {
        +maSV
        +matKhau
        +tenSV
        +ngaySinh
        +khoa
        +queQuan
        +diaChi
    }

    class MonHoc {
        +maMon
        +tenMon
        +soTinChi
    }

    class LopHocPhan {
        +maLop
        +tenLop
        +soSVToiDa
    }

    class PhongHoc {
        +maPhong
        +tenPhong
    }

    class KhungGio {
        +maKhungGio
        +thuTrongTuan
        +kipHoc
        +khungGioHoc
    }

    class LichHoc {
        +maLichHoc
    }

    class DangKyHoc {
        +maDangKy
        +hocKy
        +ngayDangKy
        +tongSoTinChi
    }

    MonHoc "1" *-- "0..*" LopHocPhan : mở lớp
    LopHocPhan "1" *-- "0..1" LichHoc : được xếp
    PhongHoc "1" -- "0..*" LichHoc : dùng cho
    KhungGio "1" -- "0..*" LichHoc : áp dụng
    SinhVien "1" -- "0..*" DangKyHoc : đăng ký
    LopHocPhan "1" -- "0..*" DangKyHoc : được đăng ký

