%% De_15 - Gọi món
classDiagram
    class Ban {
        +maBan
        +tenBan
        +soLuongKhachToiDa
        +moTa
    }


    class MonAn {
        +maMon
        +loai
        +tenMon
        +moTa
        +giaHienTai
    }


    class Combo {
        +maCombo
        +tenCombo
        +giaHienTai
    }


    class ChiTietCombo {
        +soLuong
    }


    class PhieuGoiMon {
        +maPhieuGoi
        +ngayGioGoi
    }


    class ChiTietGoiMon {
        +donGia
        +soLuong
        +thanhTien
    }
    Ban "1" -- "0..*" PhieuGoiMon : phát sinh
    PhieuGoiMon "1" *-- "1..*" ChiTietGoiMon : gồm
    ChiTietGoiMon "0..*" -- "0..1" MonAn : món ăn
    ChiTietGoiMon "0..*" -- "0..1" Combo : combo
    Combo "1" *-- "1..*" ChiTietCombo : gồm
    ChiTietCombo "0..*" -- "1" MonAn : món ăn


